<svg xmlns="http://www.w3.org/2000/svg" xmlns:xlink="http://www.w3.org/1999/xlink" contentStyleType="text/css" data-diagram-type="CLASS" height="993px" preserveAspectRatio="none" style="width:828px;height:993px;background:#FFFFFF;" version="1.1" viewBox="0 0 828 993" width="828px" zoomAndPan="magnify"><?plantuml 1.2026.3beta6?><defs/><g><!--class Usuario--><g class="entity" data-qualified-name="Usuario" data-source-line="1" id="ent0002"><rect fill="#F1F1F1" height="129.4844" rx="2.5" ry="2.5" style="stroke:#181818;stroke-width:0.5;" width="85.2041" x="339.24" y="7"/><ellipse cx="354.24" cy="23" fill="#ADD1B2" rx="11" ry="11" style="stroke:#181818;stroke-width:1;"/><path d="M357.2088,28.6406 Q356.6306,28.9375 355.99,29.0781 Q355.3494,29.2344 354.6463,29.2344 Q352.1463,29.2344 350.8181,27.5938 Q349.5056,25.9375 349.5056,22.8125 Q349.5056,19.6875 350.8181,18.0313 Q352.1463,16.375 354.6463,16.375 Q355.3494,16.375 355.99,16.5313 Q356.6463,16.6875 357.2088,16.9844 L357.2088,19.7031 Q356.5838,19.125 355.99,18.8594 Q355.3963,18.5781 354.7713,18.5781 Q353.4275,18.5781 352.74,19.6563 Q352.0525,20.7188 352.0525,22.8125 Q352.0525,24.9063 352.74,25.9844 Q353.4275,27.0469 354.7713,27.0469 Q355.3963,27.0469 355.99,26.7813 Q356.5838,26.5 357.2088,25.9219 L357.2088,28.6406 Z " fill="#000000"/><text fill="#000000" font-family="sans-serif" font-size="14" lengthAdjust="spacing" textLength="53.2041" x="368.24" y="27.8467">Usuario</text><line style="stroke:#181818;stroke-width:0.5;" x1="340.24" x2="423.4441" y1="39" y2="39"/><text fill="#000000" font-family="sans-serif" font-size="14" lengthAdjust="spacing" textLength="12.7764" x="345.24" y="55.9951">id</text><text fill="#000000" font-family="sans-serif" font-size="14" lengthAdjust="spacing" textLength="39.6895" x="345.24" y="72.292">nome</text><text fill="#000000" font-family="sans-serif" font-size="14" lengthAdjust="spacing" textLength="38.6094" x="345.24" y="88.5889">email</text><text fill="#000000" font-family="sans-serif" font-size="14" lengthAdjust="spacing" textLength="42.2324" x="345.24" y="104.8857">senha</text><text fill="#000000" font-family="sans-serif" font-size="14" lengthAdjust="spacing" textLength="39.3682" x="345.24" y="121.1826">perfis</text><line style="stroke:#181818;stroke-width:0.5;" x1="340.24" x2="423.4441" y1="128.4844" y2="128.4844"/></g><!--class Banco--><g class="entity" data-qualified-name="Banco" data-source-line="9" id="ent0003"><rect fill="#F1F1F1" height="80.5938" rx="2.5" ry="2.5" style="stroke:#181818;stroke-width:0.5;" width="75.3193" x="459.18" y="31.45"/><ellipse cx="474.18" cy="47.45" fill="#ADD1B2" rx="11" ry="11" style="stroke:#181818;stroke-width:1;"/><path d="M477.1488,53.0906 Q476.5706,53.3875 475.93,53.5281 Q475.2894,53.6844 474.5863,53.6844 Q472.0863,53.6844 470.7581,52.0438 Q469.4456,50.3875 469.4456,47.2625 Q469.4456,44.1375 470.7581,42.4813 Q472.0863,40.825 474.5863,40.825 Q475.2894,40.825 475.93,40.9813 Q476.5863,41.1375 477.1488,41.4344 L477.1488,44.1531 Q476.5238,43.575 475.93,43.3094 Q475.3363,43.0281 474.7113,43.0281 Q473.3675,43.0281 472.68,44.1063 Q471.9925,45.1688 471.9925,47.2625 Q471.9925,49.3563 472.68,50.4344 Q473.3675,51.4969 474.7113,51.4969 Q475.3363,51.4969 475.93,51.2313 Q476.5238,50.95 477.1488,50.3719 L477.1488,53.0906 Z " fill="#000000"/><text fill="#000000" font-family="sans-serif" font-size="14" lengthAdjust="spacing" textLength="43.3193" x="488.18" y="52.2967">Banco</text><line style="stroke:#181818;stroke-width:0.5;" x1="460.18" x2="533.4993" y1="63.45" y2="63.45"/><text fill="#000000" font-family="sans-serif" font-size="14" lengthAdjust="spacing" textLength="12.7764" x="465.18" y="80.4451">id</text><text fill="#000000" font-family="sans-serif" font-size="14" lengthAdjust="spacing" textLength="39.6895" x="465.18" y="96.742">nome</text><line style="stroke:#181818;stroke-width:0.5;" x1="460.18" x2="533.4993" y1="104.0438" y2="104.0438"/></g><!--class Conta--><g class="entity" data-qualified-name="Conta" data-source-line="14" id="ent0004"><rect fill="#F1F1F1" height="145.7813" rx="2.5" ry="2.5" style="stroke:#181818;stroke-width:0.5;" width="124.2256" x="376.73" y="213.49"/><ellipse cx="414.6545" cy="229.49" fill="#ADD1B2" rx="11" ry="11" style="stroke:#181818;stroke-width:1;"/><path d="M417.6233,235.1306 Q417.0451,235.4275 416.4045,235.5681 Q415.7639,235.7244 415.0608,235.7244 Q412.5608,235.7244 411.2326,234.0838 Q409.9201,232.4275 409.9201,229.3025 Q409.9201,226.1775 411.2326,224.5213 Q412.5608,222.865 415.0608,222.865 Q415.7639,222.865 416.4045,223.0213 Q417.0608,223.1775 417.6233,223.4744 L417.6233,226.1931 Q416.9983,225.615 416.4045,225.3494 Q415.8108,225.0681 415.1858,225.0681 Q413.842,225.0681 413.1545,226.1463 Q412.467,227.2088 412.467,229.3025 Q412.467,231.3963 413.1545,232.4744 Q413.842,233.5369 415.1858,233.5369 Q415.8108,233.5369 416.4045,233.2713 Q416.9983,232.99 417.6233,232.4119 L417.6233,235.1306 Z " fill="#000000"/><text fill="#000000" font-family="sans-serif" font-size="14" lengthAdjust="spacing" textLength="41.2822" x="433.7488" y="234.3367">Conta</text><line style="stroke:#181818;stroke-width:0.5;" x1="377.73" x2="499.9556" y1="245.49" y2="245.49"/><text fill="#000000" font-family="sans-serif" font-size="14" lengthAdjust="spacing" textLength="12.7764" x="382.73" y="262.4851">id</text><text fill="#000000" font-family="sans-serif" font-size="14" lengthAdjust="spacing" textLength="66.9785" x="382.73" y="278.782">descricao</text><text fill="#000000" font-family="sans-serif" font-size="14" lengthAdjust="spacing" textLength="37.2148" x="382.73" y="295.0789">saldo</text><text fill="#000000" font-family="sans-serif" font-size="14" lengthAdjust="spacing" textLength="73.0352" x="382.73" y="311.3757">tipo_conta</text><text fill="#000000" font-family="sans-serif" font-size="14" lengthAdjust="spacing" textLength="112.2256" x="382.73" y="327.6726">dia_fechamento</text><text fill="#000000" font-family="sans-serif" font-size="14" lengthAdjust="spacing" textLength="110.8926" x="382.73" y="343.9695">dia_vencimento</text><line style="stroke:#181818;stroke-width:0.5;" x1="377.73" x2="499.9556" y1="351.2713" y2="351.2713"/></g><!--class Cartao--><g class="entity" data-qualified-name="Cartao" data-source-line="23" id="ent0005"><rect fill="#F1F1F1" height="129.4844" rx="2.5" ry="2.5" style="stroke:#181818;stroke-width:0.5;" width="132.251" x="543.71" y="436.27"/><ellipse cx="582.7881" cy="452.27" fill="#ADD1B2" rx="11" ry="11" style="stroke:#181818;stroke-width:1;"/><path d="M585.7568,457.9106 Q585.1787,458.2075 584.5381,458.3481 Q583.8975,458.5044 583.1943,458.5044 Q580.6943,458.5044 579.3662,456.8638 Q578.0537,455.2075 578.0537,452.0825 Q578.0537,448.9575 579.3662,447.3013 Q580.6943,445.645 583.1943,445.645 Q583.8975,445.645 584.5381,445.8013 Q585.1943,445.9575 585.7568,446.2544 L585.7568,448.9731 Q585.1318,448.395 584.5381,448.1294 Q583.9443,447.8481 583.3193,447.8481 Q581.9756,447.8481 581.2881,448.9263 Q580.6006,449.9888 580.6006,452.0825 Q580.6006,454.1763 581.2881,455.2544 Q581.9756,456.3169 583.3193,456.3169 Q583.9443,456.3169 584.5381,456.0513 Q585.1318,455.77 585.7568,455.1919 L585.7568,457.9106 Z " fill="#000000"/><text fill="#000000" font-family="sans-serif" font-size="14" lengthAdjust="spacing" textLength="46.7441" x="602.1388" y="457.1167">Cartao</text><line style="stroke:#181818;stroke-width:0.5;" x1="544.71" x2="674.961" y1="468.27" y2="468.27"/><text fill="#000000" font-family="sans-serif" font-size="14" lengthAdjust="spacing" textLength="12.7764" x="549.71" y="485.2651">id</text><text fill="#000000" font-family="sans-serif" font-size="14" lengthAdjust="spacing" textLength="66.9785" x="549.71" y="501.562">descricao</text><text fill="#000000" font-family="sans-serif" font-size="14" lengthAdjust="spacing" textLength="120.251" x="549.71" y="517.8589">ultimos_numeros</text><text fill="#000000" font-family="sans-serif" font-size="14" lengthAdjust="spacing" textLength="39.4092" x="549.71" y="534.1557">limite</text><text fill="#000000" font-family="sans-serif" font-size="14" lengthAdjust="spacing" textLength="78.4971" x="549.71" y="550.4526">tipo_cartao</text><line style="stroke:#181818;stroke-width:0.5;" x1="544.71" x2="674.961" y1="557.7544" y2="557.7544"/></g><!--class Categoria--><g class="entity" data-qualified-name="Categoria" data-source-line="31" id="ent0006"><rect fill="#F1F1F1" height="96.8906" rx="2.5" ry="2.5" style="stroke:#181818;stroke-width:0.5;" width="100.1338" x="108.77" y="452.56"/><ellipse cx="123.77" cy="468.56" fill="#ADD1B2" rx="11" ry="11" style="stroke:#181818;stroke-width:1;"/><path d="M126.7388,474.2006 Q126.1606,474.4975 125.52,474.6381 Q124.8794,474.7944 124.1763,474.7944 Q121.6763,474.7944 120.3481,473.1538 Q119.0356,471.4975 119.0356,468.3725 Q119.0356,465.2475 120.3481,463.5913 Q121.6763,461.935 124.1763,461.935 Q124.8794,461.935 125.52,462.0913 Q126.1763,462.2475 126.7388,462.5444 L126.7388,465.2631 Q126.1138,464.685 125.52,464.4194 Q124.9263,464.1381 124.3013,464.1381 Q122.9575,464.1381 122.27,465.2163 Q121.5825,466.2788 121.5825,468.3725 Q121.5825,470.4663 122.27,471.5444 Q122.9575,472.6069 124.3013,472.6069 Q124.9263,472.6069 125.52,472.3413 Q126.1138,472.06 126.7388,471.4819 L126.7388,474.2006 Z " fill="#000000"/><text fill="#000000" font-family="sans-serif" font-size="14" lengthAdjust="spacing" textLength="68.1338" x="137.77" y="473.4067">Categoria</text><line style="stroke:#181818;stroke-width:0.5;" x1="109.77" x2="207.9038" y1="484.56" y2="484.56"/><text fill="#000000" font-family="sans-serif" font-size="14" lengthAdjust="spacing" textLength="12.7764" x="114.77" y="501.5551">id</text><text fill="#000000" font-family="sans-serif" font-size="14" lengthAdjust="spacing" textLength="66.9785" x="114.77" y="517.852">descricao</text><text fill="#000000" font-family="sans-serif" font-size="14" lengthAdjust="spacing" textLength="78.8799" x="114.77" y="534.1489">visibilidade</text><line style="stroke:#181818;stroke-width:0.5;" x1="109.77" x2="207.9038" y1="541.4506" y2="541.4506"/></g><!--class Transacao--><g class="entity" data-qualified-name="Transacao" data-source-line="37" id="ent0007"><rect fill="#F1F1F1" height="162.0781" rx="2.5" ry="2.5" style="stroke:#181818;stroke-width:0.5;" width="150.373" x="203.65" y="642.75"/><ellipse cx="239.3043" cy="658.75" fill="#ADD1B2" rx="11" ry="11" style="stroke:#181818;stroke-width:1;"/><path d="M242.273,664.3906 Q241.6949,664.6875 241.0543,664.8281 Q240.4137,664.9844 239.7105,664.9844 Q237.2105,664.9844 235.8824,663.3438 Q234.5699,661.6875 234.5699,658.5625 Q234.5699,655.4375 235.8824,653.7813 Q237.2105,652.125 239.7105,652.125 Q240.4137,652.125 241.0543,652.2813 Q241.7105,652.4375 242.273,652.7344 L242.273,655.4531 Q241.648,654.875 241.0543,654.6094 Q240.4605,654.3281 239.8355,654.3281 Q238.4918,654.3281 237.8043,655.4063 Q237.1168,656.4688 237.1168,658.5625 Q237.1168,660.6563 237.8043,661.7344 Q238.4918,662.7969 239.8355,662.7969 Q240.4605,662.7969 241.0543,662.5313 Q241.648,662.25 242.273,661.6719 L242.273,664.3906 Z " fill="#000000"/><text fill="#000000" font-family="sans-serif" font-size="14" lengthAdjust="spacing" textLength="72.4746" x="257.8941" y="663.5967">Transacao</text><line style="stroke:#181818;stroke-width:0.5;" x1="204.65" x2="353.023" y1="674.75" y2="674.75"/><text fill="#000000" font-family="sans-serif" font-size="14" lengthAdjust="spacing" textLength="12.7764" x="209.65" y="691.7451">id</text><text fill="#000000" font-family="sans-serif" font-size="14" lengthAdjust="spacing" textLength="66.9785" x="209.65" y="708.042">descricao</text><text fill="#000000" font-family="sans-serif" font-size="14" lengthAdjust="spacing" textLength="35.0752" x="209.65" y="724.3389">valor</text><text fill="#000000" font-family="sans-serif" font-size="14" lengthAdjust="spacing" textLength="59.2949" x="209.65" y="740.6357">parcelas</text><text fill="#000000" font-family="sans-serif" font-size="14" lengthAdjust="spacing" textLength="138.373" x="209.65" y="756.9326">adicionar_na_fatura</text><text fill="#000000" font-family="sans-serif" font-size="14" lengthAdjust="spacing" textLength="107.9463" x="209.65" y="773.2295">data_transacao</text><text fill="#000000" font-family="sans-serif" font-size="14" lengthAdjust="spacing" textLength="103.2432" x="209.65" y="789.5264">tipo_transacao</text><line style="stroke:#181818;stroke-width:0.5;" x1="204.65" x2="353.023" y1="796.8281" y2="796.8281"/></g><!--class Assinatura--><g class="entity" data-qualified-name="Assinatura" data-source-line="47" id="ent0008"><rect fill="#F1F1F1" height="129.4844" rx="2.5" ry="2.5" style="stroke:#181818;stroke-width:0.5;" width="106.2041" x="471.74" y="659.05"/><ellipse cx="486.74" cy="675.05" fill="#ADD1B2" rx="11" ry="11" style="stroke:#181818;stroke-width:1;"/><path d="M489.7088,680.6906 Q489.1306,680.9875 488.49,681.1281 Q487.8494,681.2844 487.1463,681.2844 Q484.6463,681.2844 483.3181,679.6438 Q482.0056,677.9875 482.0056,674.8625 Q482.0056,671.7375 483.3181,670.0813 Q484.6463,668.425 487.1463,668.425 Q487.8494,668.425 488.49,668.5813 Q489.1463,668.7375 489.7088,669.0344 L489.7088,671.7531 Q489.0838,671.175 488.49,670.9094 Q487.8963,670.6281 487.2713,670.6281 Q485.9275,670.6281 485.24,671.7063 Q484.5525,672.7688 484.5525,674.8625 Q484.5525,676.9563 485.24,678.0344 Q485.9275,679.0969 487.2713,679.0969 Q487.8963,679.0969 488.49,678.8313 Q489.0838,678.55 489.7088,677.9719 L489.7088,680.6906 Z " fill="#000000"/><text fill="#000000" font-family="sans-serif" font-size="14" lengthAdjust="spacing" textLength="74.2041" x="500.74" y="679.8967">Assinatura</text><line style="stroke:#181818;stroke-width:0.5;" x1="472.74" x2="576.9441" y1="691.05" y2="691.05"/><text fill="#000000" font-family="sans-serif" font-size="14" lengthAdjust="spacing" textLength="12.7764" x="477.74" y="708.0451">id</text><text fill="#000000" font-family="sans-serif" font-size="14" lengthAdjust="spacing" textLength="66.9785" x="477.74" y="724.342">descricao</text><text fill="#000000" font-family="sans-serif" font-size="14" lengthAdjust="spacing" textLength="39.5186" x="477.74" y="740.6389">preco</text><text fill="#000000" font-family="sans-serif" font-size="14" lengthAdjust="spacing" textLength="61.9404" x="477.74" y="756.9357">intervalo</text><text fill="#000000" font-family="sans-serif" font-size="14" lengthAdjust="spacing" textLength="43.0186" x="477.74" y="773.2326">status</text><line style="stroke:#181818;stroke-width:0.5;" x1="472.74" x2="576.9441" y1="780.5344" y2="780.5344"/></g><!--class Fatura--><g class="entity" data-qualified-name="Fatura" data-source-line="55" id="ent0009"><rect fill="#F1F1F1" height="145.7813" rx="2.5" ry="2.5" style="stroke:#181818;stroke-width:0.5;" width="133.0713" x="663.3" y="650.9"/><ellipse cx="703.384" cy="666.9" fill="#ADD1B2" rx="11" ry="11" style="stroke:#181818;stroke-width:1;"/><path d="M706.3527,672.5406 Q705.7746,672.8375 705.134,672.9781 Q704.4934,673.1344 703.7902,673.1344 Q701.2902,673.1344 699.9621,671.4938 Q698.6496,669.8375 698.6496,666.7125 Q698.6496,663.5875 699.9621,661.9313 Q701.2902,660.275 703.7902,660.275 Q704.4934,660.275 705.134,660.4313 Q705.7902,660.5875 706.3527,660.8844 L706.3527,663.6031 Q705.7277,663.025 705.134,662.7594 Q704.5402,662.4781 703.9152,662.4781 Q702.5715,662.4781 701.884,663.5563 Q701.1965,664.6188 701.1965,666.7125 Q701.1965,668.8063 701.884,669.8844 Q702.5715,670.9469 703.9152,670.9469 Q704.5402,670.9469 705.134,670.6813 Q705.7277,670.4 706.3527,669.8219 L706.3527,672.5406 Z " fill="#000000"/><text fill="#000000" font-family="sans-serif" font-size="14" lengthAdjust="spacing" textLength="45.3291" x="722.9582" y="671.7467">Fatura</text><line style="stroke:#181818;stroke-width:0.5;" x1="664.3" x2="795.3713" y1="682.9" y2="682.9"/><text fill="#000000" font-family="sans-serif" font-size="14" lengthAdjust="spacing" textLength="12.7764" x="669.3" y="699.8951">id</text><text fill="#000000" font-family="sans-serif" font-size="14" lengthAdjust="spacing" textLength="75.3389" x="669.3" y="716.192">data_inicio</text><text fill="#000000" font-family="sans-serif" font-size="14" lengthAdjust="spacing" textLength="60.9902" x="669.3" y="732.4889">data_fim</text><text fill="#000000" font-family="sans-serif" font-size="14" lengthAdjust="spacing" textLength="121.0713" x="669.3" y="748.7857">data_vencimento</text><text fill="#000000" font-family="sans-serif" font-size="14" lengthAdjust="spacing" textLength="74.0879" x="669.3" y="765.0826">valor_total</text><text fill="#000000" font-family="sans-serif" font-size="14" lengthAdjust="spacing" textLength="43.0186" x="669.3" y="781.3795">status</text><line style="stroke:#181818;stroke-width:0.5;" x1="664.3" x2="795.3713" y1="788.6813" y2="788.6813"/></g><!--class ItemFatura--><g class="entity" data-qualified-name="ItemFatura" data-source-line="64" id="ent0010"><rect fill="#F1F1F1" height="96.8906" rx="2.5" ry="2.5" style="stroke:#181818;stroke-width:0.5;" width="125.3193" x="462.18" y="881.83"/><ellipse cx="484.4345" cy="897.83" fill="#ADD1B2" rx="11" ry="11" style="stroke:#181818;stroke-width:1;"/><path d="M487.4032,903.4706 Q486.8251,903.7675 486.1845,903.9081 Q485.5439,904.0644 484.8407,904.0644 Q482.3407,904.0644 481.0126,902.4238 Q479.7001,900.7675 479.7001,897.6425 Q479.7001,894.5175 481.0126,892.8613 Q482.3407,891.205 484.8407,891.205 Q485.5439,891.205 486.1845,891.3613 Q486.8407,891.5175 487.4032,891.8144 L487.4032,894.5331 Q486.7782,893.955 486.1845,893.6894 Q485.5907,893.4081 484.9657,893.4081 Q483.622,893.4081 482.9345,894.4863 Q482.247,895.5488 482.247,897.6425 Q482.247,899.7363 482.9345,900.8144 Q483.622,901.8769 484.9657,901.8769 Q485.5907,901.8769 486.1845,901.6113 Q486.7782,901.33 487.4032,900.7519 L487.4032,903.4706 Z " fill="#000000"/><text fill="#000000" font-family="sans-serif" font-size="14" lengthAdjust="spacing" textLength="77.1982" x="500.0466" y="902.6767">ItemFatura</text><line style="stroke:#181818;stroke-width:0.5;" x1="463.18" x2="586.4993" y1="913.83" y2="913.83"/><text fill="#000000" font-family="sans-serif" font-size="14" lengthAdjust="spacing" textLength="12.7764" x="468.18" y="930.8251">id</text><text fill="#000000" font-family="sans-serif" font-size="14" lengthAdjust="spacing" textLength="35.0752" x="468.18" y="947.122">valor</text><text fill="#000000" font-family="sans-serif" font-size="14" lengthAdjust="spacing" textLength="113.3193" x="468.18" y="963.4189">numero_parcela</text><line style="stroke:#181818;stroke-width:0.5;" x1="463.18" x2="586.4993" y1="970.7206" y2="970.7206"/></g><!--link Usuario to Conta--><g class="link" data-entity-1="ent0002" data-entity-2="ent0004" data-link-type="association" data-source-line="73" id="lnk11"><path codeLine="73" d="M398.5,136.9 C402.51,152.18 406.8,168.42 410.84,183.49 C413.41,193.05 416.14,203.12 418.85,213.05" fill="none" id="Usuario-Conta" style="stroke:#181818;stroke-width:1;"/><text fill="#000000" font-family="sans-serif" font-size="13" lengthAdjust="spacing" textLength="41.6025" x="411.84" y="179.5569">possui</text><text fill="#000000" font-family="sans-serif" font-size="13" lengthAdjust="spacing" textLength="8.271" x="391.8193" y="156.4666">1</text><text fill="#000000" font-family="sans-serif" font-size="13" lengthAdjust="spacing" textLength="6.5" x="410.6823" y="202.4191">*</text></g><!--link Banco to Conta--><g class="link" data-entity-1="ent0003" data-entity-2="ent0004" data-link-type="association" data-source-line="74" id="lnk12"><path codeLine="74" d="M486.07,112.24 C478.34,140.58 467.7,179.58 458.47,213.39" fill="none" id="Banco-Conta" style="stroke:#181818;stroke-width:1;"/><text fill="#000000" font-family="sans-serif" font-size="13" lengthAdjust="spacing" textLength="70.1733" x="469.84" y="179.5569">pertence a</text><text fill="#000000" font-family="sans-serif" font-size="13" lengthAdjust="spacing" textLength="8.271" x="475.7377" y="131.9664">1</text><text fill="#000000" font-family="sans-serif" font-size="13" lengthAdjust="spacing" textLength="6.5" x="454.1314" y="202.5401">*</text></g><!--link Conta to Cartao--><g class="link" data-entity-1="ent0004" data-entity-2="ent0005" data-link-type="association" data-source-line="75" id="lnk13"><path codeLine="75" d="M496.97,359.66 C516.92,384.46 539.08,412.03 558.46,436.11" fill="none" id="Conta-Cartao" style="stroke:#181818;stroke-width:1;"/><text fill="#000000" font-family="sans-serif" font-size="13" lengthAdjust="spacing" textLength="25.7588" x="529.84" y="402.3369">tem</text><text fill="#000000" font-family="sans-serif" font-size="13" lengthAdjust="spacing" textLength="8.271" x="494.1419" y="379.4325">1</text><text fill="#000000" font-family="sans-serif" font-size="13" lengthAdjust="spacing" textLength="6.5" x="546.54" y="425.2652">*</text></g><!--link Conta to Transacao--><g class="link" data-entity-1="ent0004" data-entity-2="ent0007" data-link-type="association" data-source-line="76" id="lnk14"><path codeLine="76" d="M376.43,289.8 C284.57,297.14 115.58,325.82 38.84,436.27 C6,483.53 11.47,515.13 38.84,565.75 C73.48,629.81 146.87,671.93 203.43,696.27" fill="none" id="Conta-Transacao" style="stroke:#181818;stroke-width:1;"/><text fill="#000000" font-family="sans-serif" font-size="13" lengthAdjust="spacing" textLength="50.3877" x="39.84" y="505.5769">registra</text><text fill="#000000" font-family="sans-serif" font-size="13" lengthAdjust="spacing" textLength="8.271" x="360.3525" y="286.3777">1</text><text fill="#000000" font-family="sans-serif" font-size="13" lengthAdjust="spacing" textLength="6.5" x="189.3701" y="689.7324">*</text></g><!--link Transacao to Conta--><g class="link" data-entity-1="ent0007" data-entity-2="ent0004" data-link-type="association" data-source-line="86" id="lnk24"><path codeLine="86" d="M284.68,642.28 C291.15,583.33 304.68,502.4 332.84,436.27 C344.21,409.55 361,382.92 377.87,359.71" fill="none" id="Transacao-Conta" style="stroke:#181818;stroke-width:1;"/><text fill="#000000" font-family="sans-serif" font-size="13" lengthAdjust="spacing" textLength="88.4609" x="333.84" y="505.5769">conta destino</text><text fill="#000000" font-family="sans-serif" font-size="13" lengthAdjust="spacing" textLength="24.8066" x="260.1856" y="631.7034">0..1</text><text fill="#000000" font-family="sans-serif" font-size="13" lengthAdjust="spacing" textLength="24.8066" x="347.18" y="379.2345">0..1</text></g><!--link Conta to Assinatura--><g class="link" data-entity-1="ent0004" data-entity-2="ent0008" data-link-type="association" data-source-line="77" id="lnk15"><path codeLine="77" d="M432.79,359.64 C429.5,426.8 430.47,528.82 456.84,612.75 C461.79,628.5 469.5,644.27 477.98,658.76" fill="none" id="Conta-Assinatura" style="stroke:#181818;stroke-width:1;"/><text fill="#000000" font-family="sans-serif" font-size="13" lengthAdjust="spacing" textLength="61.458" x="444.84" y="505.5769">cobra em</text><text fill="#000000" font-family="sans-serif" font-size="13" lengthAdjust="spacing" textLength="8.271" x="423.8448" y="379.4106">1</text><text fill="#000000" font-family="sans-serif" font-size="13" lengthAdjust="spacing" textLength="6.5" x="466.5537" y="647.9009">*</text></g><!--link Conta to Fatura--><g class="link" data-entity-1="ent0004" data-entity-2="ent0009" data-link-type="association" data-source-line="78" id="lnk16"><path codeLine="78" d="M501.3,305.91 C561.16,327.16 648.85,368.14 693.84,436.27 C735.77,499.75 740.64,588.65 737.65,650.53" fill="none" id="Conta-Fatura" style="stroke:#181818;stroke-width:1;"/><text fill="#000000" font-family="sans-serif" font-size="13" lengthAdjust="spacing" textLength="76.5083" x="735.84" y="505.5769">associada a</text><text fill="#000000" font-family="sans-serif" font-size="13" lengthAdjust="spacing" textLength="8.271" x="508.9998" y="304.3755">1</text><text fill="#000000" font-family="sans-serif" font-size="13" lengthAdjust="spacing" textLength="6.5" x="732.1327" y="639.9057">*</text></g><!--link Cartao to Transacao--><g class="link" data-entity-1="ent0005" data-entity-2="ent0007" data-link-type="association" data-source-line="79" id="lnk17"><path codeLine="79" d="M543.26,546.42 C488.6,582.88 411.22,634.49 354.28,672.47" fill="none" id="Cartao-Transacao" style="stroke:#181818;stroke-width:1;"/><text fill="#000000" font-family="sans-serif" font-size="13" lengthAdjust="spacing" textLength="79.9614" x="464.84" y="608.8169">utilizado em</text><text fill="#000000" font-family="sans-serif" font-size="13" lengthAdjust="spacing" textLength="8.271" x="527.5556" y="547.6403">1</text><text fill="#000000" font-family="sans-serif" font-size="13" lengthAdjust="spacing" textLength="6.5" x="362.0264" y="663.7534">*</text></g><!--link Cartao to Assinatura--><g class="link" data-entity-1="ent0005" data-entity-2="ent0008" data-link-type="association" data-source-line="80" id="lnk18"><path codeLine="80" d="M591.06,566 C586.13,581.43 580.58,597.78 574.84,612.75 C569.05,627.84 562.22,643.8 555.5,658.75" fill="none" id="Cartao-Assinatura" style="stroke:#181818;stroke-width:1;"/><text fill="#000000" font-family="sans-serif" font-size="13" lengthAdjust="spacing" textLength="74.8262" x="580.84" y="608.8169">vinculada a</text><text fill="#000000" font-family="sans-serif" font-size="13" lengthAdjust="spacing" textLength="8.271" x="580.5838" y="586.0025">1</text><text fill="#000000" font-family="sans-serif" font-size="13" lengthAdjust="spacing" textLength="6.5" x="552.5524" y="647.8899">*</text></g><!--link Cartao to Fatura--><g class="link" data-entity-1="ent0005" data-entity-2="ent0009" data-link-type="association" data-source-line="81" id="lnk19"><path codeLine="81" d="M647.25,566.09 C652.88,575.99 658.56,586.11 663.84,595.75 C673.51,613.41 683.66,632.61 693.03,650.61" fill="none" id="Cartao-Fatura" style="stroke:#181818;stroke-width:1;"/><text fill="#000000" font-family="sans-serif" font-size="13" lengthAdjust="spacing" textLength="29.561" x="671.84" y="608.8169">gera</text><text fill="#000000" font-family="sans-serif" font-size="13" lengthAdjust="spacing" textLength="8.271" x="642.7098" y="585.6483">1</text><text fill="#000000" font-family="sans-serif" font-size="13" lengthAdjust="spacing" textLength="6.5" x="683.1362" y="639.7414">*</text></g><!--link Categoria to Transacao--><g class="link" data-entity-1="ent0006" data-entity-2="ent0007" data-link-type="association" data-source-line="82" id="lnk20"><path codeLine="82" d="M168.87,549.88 C174.14,569.97 181.66,593.17 191.84,612.75 C197.06,622.8 203.26,632.83 209.9,642.51" fill="none" id="Categoria-Transacao" style="stroke:#181818;stroke-width:1;"/><text fill="#000000" font-family="sans-serif" font-size="13" lengthAdjust="spacing" textLength="59.1855" x="192.84" y="608.8169">classifica</text><text fill="#000000" font-family="sans-serif" font-size="13" lengthAdjust="spacing" textLength="8.271" x="161.6989" y="569.5312">1</text><text fill="#000000" font-family="sans-serif" font-size="13" lengthAdjust="spacing" textLength="6.5" x="197.5154" y="631.6759">*</text></g><!--link Fatura to ItemFatura--><g class="link" data-entity-1="ent0009" data-entity-2="ent0010" data-link-type="association" data-source-line="83" id="lnk21"><path codeLine="83" d="M663,791.46 C633.55,820.83 599.63,854.68 572.76,881.48" fill="none" id="Fatura-ItemFatura" style="stroke:#181818;stroke-width:1;"/><text fill="#000000" font-family="sans-serif" font-size="13" lengthAdjust="spacing" textLength="89.4893" x="615.84" y="847.8969">composta por</text><text fill="#000000" font-family="sans-serif" font-size="13" lengthAdjust="spacing" textLength="8.271" x="646.8253" y="795.4917">1</text><text fill="#000000" font-family="sans-serif" font-size="13" lengthAdjust="spacing" textLength="6.5" x="573.1121" y="870.6397">*</text></g><!--link Transacao to ItemFatura--><g class="link" data-entity-1="ent0007" data-entity-2="ent0010" data-link-type="association" data-source-line="84" id="lnk22"><path codeLine="84" d="M354.32,787.53 C390.76,817.82 433.77,853.58 467.48,881.6" fill="none" id="Transacao-ItemFatura" style="stroke:#181818;stroke-width:1;"/><text fill="#000000" font-family="sans-serif" font-size="13" lengthAdjust="spacing" textLength="44.9795" x="431.84" y="847.8969">origina</text><text fill="#000000" font-family="sans-serif" font-size="13" lengthAdjust="spacing" textLength="8.271" x="361.9087" y="789.9637">1</text><text fill="#000000" font-family="sans-serif" font-size="13" lengthAdjust="spacing" textLength="6.5" x="453.0271" y="870.7766">*</text></g><!--link Assinatura to ItemFatura--><g class="link" data-entity-1="ent0008" data-entity-2="ent0010" data-link-type="association" data-source-line="85" id="lnk23"><path codeLine="85" d="M524.84,788.93 C524.84,818.91 524.84,854 524.84,881.59" fill="none" id="Assinatura-ItemFatura" style="stroke:#181818;stroke-width:1;"/><text fill="#000000" font-family="sans-serif" font-size="13" lengthAdjust="spacing" textLength="44.9795" x="525.84" y="847.8969">origina</text><text fill="#000000" font-family="sans-serif" font-size="13" lengthAdjust="spacing" textLength="8.271" x="516.4413" y="808.4945">1</text><text fill="#000000" font-family="sans-serif" font-size="13" lengthAdjust="spacing" textLength="6.5" x="518.4533" y="870.7652">*</text></g><?plantuml-src XLHDQzmm4BtxLuYz50e9xNMXXsr88D0cqAPdCv5dDmEInaZZFRJqlrSVNbjXRTSNZQGtxysNh0s4e7w50Jon-jEe-56N5ySMiu4Mo6Ghe7k3RFNeZnIQlqsZCyDNS7h9VmBSiHDu3-WmQ4yQk723wOebr7Eh4xx02DeZwZUmw8IdepCwJULe5W4lm5igWn6o75etMFGSyfaXIuALT6QfMGLFx6ap_3C5UYL37NHLrYyUN02z7TCP3FjILV0QesFUG4UQs85lNIm0oE37Ue10AnVYEUpvQ98_X40kUsxfznvriSW9-XHEwOX4rwh73qjCAHXoAT9vVoGxRwe-JScsmW9cKUHHq2u9pKKghMl7MYNF3-hBsXVlVjn_EzmzFZyTljy_lJp_t4HV7iBkyqxTtAZTnzquk7lLSmW3DMNGb-xHIqmL5JJbgCQKkTohcDprxJmaU-NnH25syXfLzNAlDB_6TOdiuGA9nMHDq44AgEYlQ0uIv_OtT9m9hw3lXC_az63MM2Vn4wOKfdUp8fmxJiSuYCteMG6hGKZvsbZ_c6aVXs2cM8D7qLECkQb2_n-q8lrqUpk2YtNfSFubfRSZvFWV?></g></svg>